<?xml version="1.0" encoding="UTF-8" standalone="no"?>
<!-- Created with Inkscape (http://www.inkscape.org/) -->

<svg
   xmlns:dc="http://purl.org/dc/elements/1.1/"
   xmlns:cc="http://creativecommons.org/ns#"
   xmlns:rdf="http://www.w3.org/1999/02/22-rdf-syntax-ns#"
   xmlns:svg="http://www.w3.org/2000/svg"
   xmlns="http://www.w3.org/2000/svg"
   xmlns:sodipodi="http://sodipodi.sourceforge.net/DTD/sodipodi-0.dtd"
   xmlns:inkscape="http://www.inkscape.org/namespaces/inkscape"
   width="119.04902mm"
   height="28.166218mm"
   viewBox="0 0 421.82723 99.801559"
   id="svg4349"
   version="1.1"
   inkscape:version="0.91 r13725"
   sodipodi:docname="logo-full.svg">
  <defs
     id="defs4351" />
  <sodipodi:namedview
     id="base"
     pagecolor="#ffffff"
     bordercolor="#666666"
     borderopacity="1.0"
     inkscape:pageopacity="0.0"
     inkscape:pageshadow="2"
     inkscape:zoom="1.4"
     inkscape:cx="257.89993"
     inkscape:cy="13.497963"
     inkscape:document-units="px"
     inkscape:current-layer="layer1"
     showgrid="false"
     inkscape:window-width="1535"
     inkscape:window-height="876"
     inkscape:window-x="65"
     inkscape:window-y="24"
     inkscape:window-maximized="1"
     showborder="false"
     fit-margin-top="0"
     fit-margin-left="0"
     fit-margin-right="0"
     fit-margin-bottom="0" />
  <metadata
     id="metadata4354">
    <rdf:RDF>
      <cc:Work
         rdf:about="">
        <dc:format>image/svg+xml</dc:format>
        <dc:type
           rdf:resource="http://purl.org/dc/dcmitype/StillImage" />
        <dc:title></dc:title>
      </cc:Work>
    </rdf:RDF>
  </metadata>
  <g
     inkscape:label="Layer 1"
     inkscape:groupmode="layer"
     id="layer1"
     transform="translate(-266.75952,-266.19626)">
    <g
       id="g4146">
      <rect
         ry="9.909091"
         rx="5.7647057"
         y="278.14062"
         x="266.75952"
         height="77.85714"
         width="100"
         id="rect4144"
         style="fill:#ffffff;fill-opacity:1;stroke:none;stroke-width:2;stroke-linecap:square;stroke-linejoin:round;stroke-miterlimit:4;stroke-dasharray:none;stroke-opacity:1" />
      <g
         transform="translate(94.08498,70.807114)"
         id="g5505">
        <path
           style="fill:#1b79bf;fill-opacity:1;stroke:none;stroke-width:3.5999999;stroke-linecap:square;stroke-linejoin:round;stroke-miterlimit:4;stroke-dasharray:none;stroke-opacity:1"
           d="m 231.26121,220.85305 -9.74218,60.03516 c -0.031,0.57695 -0.45276,1.06961 -1.04493,1.2207 l -0.01,0 -0.0137,0 c -0.0393,0.009 -0.0791,0.0172 -0.11914,0.0234 l -0.006,0 -0.006,0 c -0.0363,0.005 -0.0728,0.009 -0.10938,0.0117 -0.0293,8.6e-4 -0.0586,8.6e-4 -0.0879,0 l -0.0195,0 -0.01,0 c -0.0437,-7e-4 -0.0874,-0.003 -0.13086,-0.008 -0.0472,-0.004 -0.0941,-0.01 -0.14063,-0.0176 -0.5679,-0.10609 -1.01019,-0.52673 -1.11719,-1.0625 l -12.39062,-39.91211 -3.8125,7.125 c -0.0928,0.27032 -0.27483,0.50569 -0.51953,0.67188 -0.0254,0.0177 -0.0515,0.0347 -0.0781,0.0508 -0.29539,0.18301 -0.65275,0.25546 -1.00195,0.20312 l -28.22656,-0.0332 0,30.28125 c 0,8.72441 7.02363,15.74805 15.74804,15.74805 l 68.50391,0 c 8.72441,0 15.74805,-7.02364 15.74805,-15.74805 l 0,-30.23633 -25.13672,0 -6.69922,6.13282 c -0.20504,0.1917 -0.46741,0.31982 -0.75195,0.36718 -0.80901,0.79412 -2.23367,0.37706 -2.42188,-0.70898 z"
           id="rect4988-3-5-6"
           inkscape:connector-curvature="0"
           sodipodi:nodetypes="cccccccccccccccccccccsssscccccc" />
        <path
           style="fill:#98c0e0;fill-opacity:1;stroke:none;stroke-width:3.5999999;stroke-linecap:square;stroke-linejoin:round;stroke-miterlimit:4;stroke-dasharray:none;stroke-opacity:1"
           d="m 213.83914,254.82743 c -6.65589,-21.38329 -6.85824,-21.63053 -11.06553,-13.51976 l -2.5,4.81948 -13.75,0.002 -13.75,0.002 0,-18.08464 c 0,-21.4418 0.42752,-23.7237 5.28327,-28.19957 1.72622,-1.59118 4.3776,-3.23709 5.89195,-3.65758 3.93636,-1.09302 73.78955,-1.0544 77.45173,0.0428 3.73215,1.11818 7.72288,4.57547 9.30676,8.06273 1.17979,2.59759 1.32231,4.98343 1.33632,22.37196 l 0.0157,19.46428 -13.00868,0 -13.00868,0 -2.89936,2.84551 -2.89935,2.8455 -3.68693,-19.72617 c -5.52393,-29.55474 -5.57079,-29.5147 -11.94174,10.20051 -2.7016,16.8412 -4.94689,30.6766 -4.98953,30.74533 -0.0426,0.0687 -2.64632,-8.12771 -5.78592,-18.21429 z"
           id="path5231-1-1"
           inkscape:connector-curvature="0" />
      </g>
    </g>
    <g
       transform="translate(258.18809,255.33585)"
       style="font-style:normal;font-variant:normal;font-weight:normal;font-stretch:normal;font-size:80px;line-height:125%;font-family:Raleway;-inkscape-font-specification:Raleway;letter-spacing:0px;word-spacing:0px;fill:#ffffff;fill-opacity:1;stroke:none;stroke-width:1px;stroke-linecap:butt;stroke-linejoin:miter;stroke-opacity:1"
       id="flowRoot4136">
      <path
         d="m 198.17742,42.28119 q -2.4,-2.72 -6.4,-4.4 -4,-1.68 -9.12,-1.68 -7.52,0 -10.96,2.88 -3.44,2.8 -3.44,7.68 0,2.56 0.88,4.24 0.96,1.6 2.88,2.8 1.92,1.2 4.88,2.08 3.04,0.88 7.12,1.76 4.56,0.96 8.16,2.16 3.68,1.2 6.24,3.04 2.56,1.76 3.92,4.32 1.36,2.56 1.36,6.4 0,3.92 -1.52,6.8 -1.52,2.88 -4.24,4.8 -2.72,1.92 -6.48,2.88 -3.76,0.88 -8.24,0.88 -13.2,0 -22.8,-8.24 l 2.8,-4.56 q 1.52,1.6 3.6,3.04 2.16,1.44 4.72,2.56 2.64,1.04 5.6,1.68 2.96,0.56 6.24,0.56 6.8,0 10.56,-2.4 3.84,-2.48 3.84,-7.44 0,-2.64 -1.12,-4.4 -1.04,-1.84 -3.2,-3.12 -2.16,-1.36 -5.36,-2.32 -3.2,-0.96 -7.44,-1.92 -4.48,-1.04 -7.84,-2.16 -3.36,-1.12 -5.68,-2.8 -2.32,-1.68 -3.52,-4 -1.12,-2.4 -1.12,-5.84 0,-3.92 1.44,-6.96 1.52,-3.12 4.24,-5.12 2.72,-2.08 6.4,-3.12 3.68,-1.12 8.16,-1.12 5.68,0 10.08,1.76 4.48,1.68 8.08,4.8 l -2.72,4.48 z"
         id="path4279"
         inkscape:connector-curvature="0"
         style="fill:#ffffff;fill-opacity:1" />
      <path
         d="m 231.98242,86.44119 q -0.48,0.24 -1.44,0.64 -0.88,0.4 -2.08,0.8 -1.2,0.4 -2.72,0.72 -1.52,0.32 -3.2,0.32 -1.76,0 -3.36,-0.48 -1.6,-0.48 -2.8,-1.44 -1.2,-1.04 -1.92,-2.56 -0.72,-1.52 -0.72,-3.52 l 0,-29.84 -5.76,0 0,-4.32 5.76,0 0,-14.08 5.44,0 0,14.08 9.6,0 0,4.32 -9.6,0 0,28.32 q 0.16,2.32 1.6,3.44 1.52,1.04 3.44,1.04 2.32,0 4.08,-0.72 1.76,-0.8 2.24,-1.12 l 1.44,4.4 z"
         id="path4281"
         inkscape:connector-curvature="0"
         style="fill:#ffffff;fill-opacity:1" />
      <path
         d="m 249.33742,89.24119 q -2.96,0 -5.52,-0.96 -2.48,-1.04 -4.4,-2.8 -1.84,-1.76 -2.88,-4.08 -1.04,-2.4 -1.04,-5.12 0,-2.72 1.28,-5.04 1.28,-2.32 3.6,-4 2.32,-1.68 5.52,-2.56 3.2,-0.96 7.04,-0.96 3.2,0 6.48,0.56 3.28,0.56 5.84,1.6 l 0,-3.76 q 0,-5.52 -3.12,-8.72 -3.12,-3.28 -8.64,-3.28 -3.2,0 -6.56,1.28 -3.36,1.28 -6.8,3.68 l -1.92,-3.6 q 8.08,-5.44 15.68,-5.44 7.84,0 12.32,4.4 4.48,4.4 4.48,12.16 l 0,18.8 q 0,2.24 2,2.24 l 0,4.8 q -1.36,0.24 -2.08,0.24 -2.08,0 -3.28,-1.04 -1.12,-1.04 -1.2,-2.88 l -0.16,-3.28 q -2.88,3.76 -7.28,5.76 -4.32,2 -9.36,2 z m 1.28,-4.16 q 4.24,0 7.76,-1.6 3.6,-1.6 5.44,-4.24 0.72,-0.72 1.04,-1.52 0.4,-0.88 0.4,-1.6 l 0,-6.8 q -2.72,-1.04 -5.68,-1.6 -2.88,-0.56 -5.92,-0.56 -5.76,0 -9.36,2.4 -3.6,2.4 -3.6,6.32 0,1.92 0.72,3.6 0.8,1.68 2.08,2.96 1.36,1.2 3.2,1.92 1.84,0.72 3.92,0.72 z"
         id="path4283"
         inkscape:connector-curvature="0"
         style="fill:#ffffff;fill-opacity:1" />
      <path
         d="m 302.13867,86.44119 q -0.48,0.24 -1.44,0.64 -0.88,0.4 -2.08,0.8 -1.2,0.4 -2.72,0.72 -1.52,0.32 -3.2,0.32 -1.76,0 -3.36,-0.48 -1.6,-0.48 -2.8,-1.44 -1.2,-1.04 -1.92,-2.56 -0.72,-1.52 -0.72,-3.52 l 0,-29.84 -5.76,0 0,-4.32 5.76,0 0,-14.08 5.44,0 0,14.08 9.6,0 0,4.32 -9.6,0 0,28.32 q 0.16,2.32 1.6,3.44 1.52,1.04 3.44,1.04 2.32,0 4.08,-0.72 1.76,-0.8 2.24,-1.12 l 1.44,4.4 z"
         id="path4285"
         inkscape:connector-curvature="0"
         style="fill:#ffffff;fill-opacity:1" />
      <path
         d="m 322.05367,89.24119 q -6.8,0 -10.16,-4.48 -3.28,-4.56 -3.28,-13.52 l 0,-24.48 5.44,0 0,23.52 q 0,14.16 9.68,14.16 2.4,0 4.72,-0.8 2.32,-0.8 4.24,-2.32 2,-1.52 3.52,-3.6 1.6,-2.08 2.56,-4.72 l 0,-26.24 5.44,0 0,34.64 q 0,2.24 1.92,2.24 l 0,4.8 q -0.96,0.16 -1.6,0.16 -0.56,0 -0.8,0 -1.92,-0.08 -3.12,-1.36 -1.2,-1.28 -1.2,-3.44 l 0,-4.8 q -2.72,4.88 -7.44,7.6 -4.64,2.64 -9.92,2.64 z"
         id="path4287"
         inkscape:connector-curvature="0"
         style="fill:#ffffff;fill-opacity:1" />
      <path
         d="m 370.35367,89.24119 q -4.88,0 -9.52,-1.6 -4.64,-1.6 -8,-4.64 l 2.48,-3.68 q 3.52,2.88 7.12,4.32 3.68,1.44 7.84,1.44 5.04,0 8,-2 3.04,-2.08 3.04,-5.84 0,-1.76 -0.8,-2.88 -0.8,-1.2 -2.4,-2.08 -1.52,-0.88 -3.92,-1.52 -2.32,-0.72 -5.44,-1.44 -3.6,-0.88 -6.24,-1.76 -2.64,-0.88 -4.4,-2 -1.68,-1.12 -2.56,-2.72 -0.8,-1.68 -0.8,-4.16 0,-3.12 1.2,-5.52 1.28,-2.4 3.36,-3.92 2.16,-1.6 4.96,-2.4 2.88,-0.8 6.08,-0.8 4.8,0 8.72,1.6 3.92,1.52 6.32,4.08 l -2.64,3.2 q -2.32,-2.4 -5.68,-3.6 -3.28,-1.2 -6.88,-1.2 -2.16,0 -4,0.48 -1.84,0.4 -3.28,1.36 -1.36,0.96 -2.16,2.48 -0.8,1.44 -0.8,3.44 0,1.68 0.56,2.72 0.56,1.04 1.84,1.84 1.28,0.72 3.2,1.36 2,0.56 4.8,1.2 4,0.96 7.04,1.92 3.04,0.96 5.04,2.24 2.08,1.28 3.12,3.12 1.04,1.84 1.04,4.48 0,5.76 -4.4,9.12 -4.4,3.36 -11.84,3.36 z"
         id="path4289"
         inkscape:connector-curvature="0"
         style="fill:#ffffff;fill-opacity:1" />
      <path
         d="m 397.03867,101.24119 q 0.64,0.08 1.2,0.08 0.64,0.08 1.2,0.08 1.44,0 2.24,-0.4 0.88,-0.4 1.68,-1.76 0.8,-1.36 1.76,-3.92 1.04,-2.56 2.88,-6.88 l -18.16,-41.68 5.6,0 15.44,36.64 14.32,-36.64 5.2,0 -21.6,53.76 q -0.88,2.32 -2.96,4 -2,1.76 -5.52,1.76 -0.8,0 -1.52,-0.08 -0.72,0 -1.76,-0.16 l 0,-4.8 z"
         id="path4291"
         inkscape:connector-curvature="0"
         style="fill:#ffffff;fill-opacity:1" />
    </g>
  </g>
</svg>
